<?xml version="1.0" encoding="UTF-8"?><svg id="uuid-ec6f4260-8d53-4364-8a12-f0a958d0148f" xmlns="http://www.w3.org/2000/svg" viewBox="0 0 572.86 655.47"><defs><style>.uuid-04bc7436-4c8c-4b41-a292-26e16032c5ab{fill:#bdccd4;}.uuid-04bc7436-4c8c-4b41-a292-26e16032c5ab,.uuid-1dc835e8-46df-4735-afc5-5a32afe6122e,.uuid-21da9af2-96bc-43e6-9fa6-20fd0400e4da,.uuid-3de45c28-5568-40ea-ad6c-08845f507a63,.uuid-b486d95d-d845-42bd-b292-7a33945481ec{fill-rule:evenodd;}.uuid-1dc835e8-46df-4735-afc5-5a32afe6122e{fill:#fbb03a;}.uuid-21da9af2-96bc-43e6-9fa6-20fd0400e4da{fill:#36464d;}.uuid-abc6c691-153f-4aba-9d70-26c9fe258cb8{fill:#fff;}.uuid-3de45c28-5568-40ea-ad6c-08845f507a63{fill:#ec2027;}.uuid-1e6e6004-5600-42fc-a69f-0872a9a591e3{fill:#f2f7f9;}.uuid-b486d95d-d845-42bd-b292-7a33945481ec{fill:#009247;}</style></defs><path class="uuid-1e6e6004-5600-42fc-a69f-0872a9a591e3" d="M572.86,145.75v419.14c0,49.95-40.63,90.58-90.58,90.58H90.58c-49.94,0-90.58-40.63-90.58-90.58V145.75C0,95.81,40.64,55.17,90.58,55.17h26.27v-15.09c0-22.1,17.99-40.08,40.08-40.08s40.09,17.98,40.09,40.08v15.09h178.81v-15.09c0-22.1,17.98-40.08,40.08-40.08s40.09,17.98,40.09,40.08v15.09h26.27c49.94,0,90.58,40.63,90.58,90.58Z"/><path class="uuid-21da9af2-96bc-43e6-9fa6-20fd0400e4da" d="M558.79,564.89c0,42.21-34.3,76.52-76.51,76.52H90.58c-42.2,0-76.51-34.3-76.51-76.52v-308.01h26.98v308.01c0,27.32,22.22,49.54,49.54,49.54h391.7c27.32,0,49.54-22.22,49.54-49.54v-308.01h26.97v308.01Z"/><path class="uuid-3de45c28-5568-40ea-ad6c-08845f507a63" d="M14.07,233.45v-87.7c0-42.21,34.31-76.51,76.51-76.51h24.16v40.9c0,23.24,18.96,42.2,42.2,42.2s42.21-18.96,42.21-42.2v-40.9h174.57v40.9c0,23.24,18.96,42.2,42.21,42.2s42.21-18.96,42.21-42.2v-40.9h24.15c42.21,0,76.51,34.3,76.51,76.51v87.7H14.07Z"/><path class="uuid-04bc7436-4c8c-4b41-a292-26e16032c5ab" d="M90.58,382.28h62.34c5.77,0,10.49,4.72,10.49,10.49v62.34c0,5.77-4.72,10.5-10.49,10.5h-62.34c-5.77,0-10.49-4.72-10.49-10.5v-62.34c0-5.77,4.72-10.49,10.49-10.49"/><path class="uuid-04bc7436-4c8c-4b41-a292-26e16032c5ab" d="M90.58,492.07h62.34c5.77,0,10.49,4.72,10.49,10.49v62.34c0,5.77-4.72,10.49-10.49,10.49h-62.34c-5.77,0-10.49-4.72-10.49-10.49v-62.34c0-5.77,4.72-10.49,10.49-10.49"/><path class="uuid-04bc7436-4c8c-4b41-a292-26e16032c5ab" d="M200.37,272.49h62.34c5.77,0,10.49,4.72,10.49,10.49v62.34c0,5.77-4.72,10.49-10.49,10.49h-62.34c-5.77,0-10.49-4.72-10.49-10.49v-62.34c0-5.77,4.72-10.49,10.49-10.49"/><path class="uuid-b486d95d-d845-42bd-b292-7a33945481ec" d="M200.37,382.28h62.34c5.77,0,10.49,4.72,10.49,10.49v62.34c0,5.77-4.72,10.5-10.49,10.5h-62.34c-5.77,0-10.49-4.72-10.49-10.5v-62.34c0-5.77,4.72-10.49,10.49-10.49"/><path class="uuid-04bc7436-4c8c-4b41-a292-26e16032c5ab" d="M200.37,492.07h62.34c5.77,0,10.49,4.72,10.49,10.49v62.34c0,5.77-4.72,10.49-10.49,10.49h-62.34c-5.77,0-10.49-4.72-10.49-10.49v-62.34c0-5.77,4.72-10.49,10.49-10.49"/><path class="uuid-04bc7436-4c8c-4b41-a292-26e16032c5ab" d="M310.16,272.49h62.34c5.77,0,10.49,4.72,10.49,10.49v62.34c0,5.77-4.72,10.49-10.49,10.49h-62.34c-5.77,0-10.49-4.72-10.49-10.49v-62.34c0-5.77,4.72-10.49,10.49-10.49"/><path class="uuid-04bc7436-4c8c-4b41-a292-26e16032c5ab" d="M310.16,382.28h62.34c5.77,0,10.49,4.72,10.49,10.49v62.34c0,5.77-4.72,10.5-10.49,10.5h-62.34c-5.77,0-10.49-4.72-10.49-10.5v-62.34c0-5.77,4.72-10.49,10.49-10.49"/><path class="uuid-3de45c28-5568-40ea-ad6c-08845f507a63" d="M310.16,492.07h62.34c5.77,0,10.49,4.72,10.49,10.49v62.34c0,5.77-4.72,10.49-10.49,10.49h-62.34c-5.77,0-10.49-4.72-10.49-10.49v-62.34c0-5.77,4.72-10.49,10.49-10.49"/><path class="uuid-1dc835e8-46df-4735-afc5-5a32afe6122e" d="M419.95,272.49h62.34c5.77,0,10.49,4.72,10.49,10.49v62.34c0,5.77-4.72,10.49-10.49,10.49h-62.34c-5.77,0-10.49-4.72-10.49-10.49v-62.34c0-5.77,4.72-10.49,10.49-10.49"/><path class="uuid-04bc7436-4c8c-4b41-a292-26e16032c5ab" d="M419.95,382.28h62.34c5.77,0,10.49,4.72,10.49,10.49v62.34c0,5.77-4.72,10.5-10.49,10.5h-62.34c-5.77,0-10.49-4.72-10.49-10.5v-62.34c0-5.77,4.72-10.49,10.49-10.49"/><path class="uuid-04bc7436-4c8c-4b41-a292-26e16032c5ab" d="M419.95,492.07h62.34c5.77,0,10.49,4.72,10.49,10.49v62.34c0,5.77-4.72,10.49-10.49,10.49h-62.34c-5.77,0-10.49-4.72-10.49-10.49v-62.34c0-5.77,4.72-10.49,10.49-10.49"/><path class="uuid-21da9af2-96bc-43e6-9fa6-20fd0400e4da" d="M156.94,14.06h0c14.31,0,26.02,11.72,26.02,26.02v70.06c0,14.29-11.71,26.02-26.02,26.02s-26.02-11.71-26.02-26.02V40.08c0-14.31,11.71-26.02,26.02-26.02"/><path class="uuid-21da9af2-96bc-43e6-9fa6-20fd0400e4da" d="M415.92,14.06h0c14.32,0,26.02,11.72,26.02,26.02v70.06c0,14.29-11.71,26.02-26.02,26.02s-26.02-11.71-26.02-26.02V40.08c0-14.31,11.71-26.02,26.02-26.02"/><path class="uuid-abc6c691-153f-4aba-9d70-26c9fe258cb8" d="M143.16,199.29l3.68-7.07c3.49,1.75,6.57,2.62,9.25,2.62,2.23,0,3.34-.61,3.34-1.84,0-.71-.54-1.26-1.62-1.67-1.08-.41-2.38-.8-3.9-1.17-1.52-.37-3.04-.85-4.57-1.45-1.52-.59-2.82-1.59-3.9-2.98-1.08-1.39-1.62-3.15-1.62-5.26,0-3.12,1.23-5.54,3.7-7.27,2.47-1.73,5.5-2.59,9.11-2.59,3.82,0,7.76.93,11.81,2.78l-3.56,6.85c-2.82-1.34-5.5-2-8.02-2-2,0-3.01.61-3.01,1.84,0,.67.53,1.21,1.59,1.62,1.06.41,2.35.78,3.87,1.11s3.04.78,4.57,1.34c1.52.56,2.81,1.52,3.87,2.9,1.06,1.37,1.59,3.12,1.59,5.24,0,3.23-1.21,5.75-3.62,7.55-2.41,1.8-5.55,2.7-9.41,2.7-4.57,0-8.95-1.08-13.14-3.23Z"/><path class="uuid-abc6c691-153f-4aba-9d70-26c9fe258cb8" d="M184.04,198.84v14.09h-10.36v-41.6h9.47l.78,3.62c2.23-2.86,4.99-4.29,8.3-4.29,3.53,0,6.31,1.33,8.35,3.98,2.04,2.66,3.06,6.54,3.06,11.67s-1.03,9.13-3.09,11.92-4.71,4.18-7.94,4.18-6.13-1.19-8.58-3.56ZM184.04,192.6c1.37,1.41,2.93,2.12,4.68,2.12,1.52,0,2.66-.77,3.43-2.31.76-1.54,1.14-3.57,1.14-6.1,0-5.27-1.52-7.91-4.57-7.91-1.71,0-3.27.74-4.68,2.23v11.97Z"/><path class="uuid-abc6c691-153f-4aba-9d70-26c9fe258cb8" d="M206.65,194.44c0-6.5,5.77-10.27,17.32-11.31v-1.67c0-1.86-1.1-2.78-3.29-2.78s-5.55,1.02-9.86,3.06l-3.51-7.35c4.94-2.52,9.58-3.79,13.92-3.79,8.72,0,13.09,3.75,13.09,11.25v11.42c0,1.23.69,1.84,2.06,1.84v6.85c-3.38,0-5.86-.26-7.44-.78-1.58-.52-2.89-1.56-3.93-3.12-1.34,1.56-2.74,2.69-4.21,3.4-1.47.7-3.24,1.06-5.32,1.06-2.6,0-4.73-.74-6.38-2.23-1.65-1.48-2.48-3.43-2.48-5.85ZM217.01,192.88c0,.71.25,1.3.75,1.78.5.48,1.16.72,1.98.72,1.71,0,3.12-.69,4.23-2.06v-4.96c-4.64.33-6.96,1.84-6.96,4.51Z"/><path class="uuid-abc6c691-153f-4aba-9d70-26c9fe258cb8" d="M240.35,201.79v-30.46h9.8l.61,4.29c1.93-3.49,4.75-5.23,8.46-5.23,1.15,0,2.26.15,3.34.45l-1.22,9.52c-1.23-.41-2.66-.61-4.29-.61-2.6,0-4.68,1.52-6.24,4.57v17.49h-10.47Z"/><path class="uuid-abc6c691-153f-4aba-9d70-26c9fe258cb8" d="M263.68,186.48c0-4.83,1.51-8.68,4.54-11.56,3.03-2.88,6.73-4.32,11.11-4.32s7.87,1.25,10.47,3.76c2.6,2.51,3.9,5.88,3.9,10.11,0,1.6-.13,3.08-.39,4.46h-18.99c.52,3.64,2.51,5.46,5.96,5.46,2.75,0,5.48-.8,8.19-2.39l4.23,6.29c-3.82,2.82-8.3,4.23-13.42,4.23-4.49,0-8.21-1.44-11.17-4.32-2.95-2.88-4.43-6.78-4.43-11.72ZM279.66,177.85c-1.3,0-2.41.47-3.34,1.42-.93.95-1.56,2.37-1.89,4.26h9.52c0-1.71-.35-3.08-1.06-4.12-.71-1.04-1.78-1.56-3.23-1.56Z"/><path class="uuid-abc6c691-153f-4aba-9d70-26c9fe258cb8" d="M306.9,201.79v-29.52h-12.14v-9.47h34.97v9.47h-12.14v29.52h-10.69Z"/><path class="uuid-abc6c691-153f-4aba-9d70-26c9fe258cb8" d="M333.74,167.93v-8.08h10.53v8.08h-10.53ZM333.74,201.79v-29.85h10.53v29.85h-10.53Z"/><path class="uuid-abc6c691-153f-4aba-9d70-26c9fe258cb8" d="M349.78,201.79v-30.46h10.03l.39,2.95c1.19-1.08,2.55-1.96,4.09-2.65,1.54-.69,3-1.03,4.37-1.03,3.75,0,6.31,1.37,7.69,4.12,3.04-2.75,6.24-4.12,9.58-4.12,3.08,0,5.39.95,6.93,2.84,1.54,1.89,2.31,4.59,2.31,8.08v20.27h-10.47v-20.55c0-2.08-.84-3.12-2.51-3.12-1.49,0-2.99.82-4.51,2.45,0,.19,0,.5.03.95.02.45.03.78.03,1v19.27h-10.47v-20.55c0-2.08-.84-3.12-2.51-3.12-.78,0-1.59.24-2.42.72-.84.48-1.53,1.13-2.09,1.95v21h-10.47Z"/><path class="uuid-abc6c691-153f-4aba-9d70-26c9fe258cb8" d="M399.4,186.48c0-4.83,1.51-8.68,4.54-11.56,3.03-2.88,6.73-4.32,11.11-4.32s7.87,1.25,10.47,3.76c2.6,2.51,3.9,5.88,3.9,10.11,0,1.6-.13,3.08-.39,4.46h-18.99c.52,3.64,2.51,5.46,5.96,5.46,2.75,0,5.48-.8,8.19-2.39l4.23,6.29c-3.82,2.82-8.3,4.23-13.42,4.23-4.49,0-8.21-1.44-11.17-4.32-2.95-2.88-4.43-6.78-4.43-11.72ZM415.39,177.85c-1.3,0-2.41.47-3.34,1.42-.93.95-1.56,2.37-1.89,4.26h9.52c0-1.71-.35-3.08-1.06-4.12-.71-1.04-1.78-1.56-3.23-1.56Z"/><path class="uuid-abc6c691-153f-4aba-9d70-26c9fe258cb8" d="M437.58,201.53v-10.27h-4.22v-3.29h12.17v3.29h-4.22v10.27h-3.72Z"/><path class="uuid-abc6c691-153f-4aba-9d70-26c9fe258cb8" d="M447.03,201.53v-13.56h3.74l3.58,5.04,3.6-5.04h3.68v13.56h-3.51v-8.41l-3.78,5.15-3.78-5.15v8.41h-3.55Z"/></svg>